<svg xmlns="http://www.w3.org/2000/svg" viewBox="-1600 400 3200 260" width="1600" height="130" preserveAspectRatio="none">
<!--
  Scene geometry ported from "Coup Ahoo" by Antti Haavikko.
  Source: github.com/anttihaavikko/coup-ahoo  (MIT License)
  Ported from src/scene.ts and src/ship.ts canvas drawing code.
-->
<rect x="-3000" y="-3000" width="9000" height="9000" fill="#5d9acf"/>
<path d="M2600,2000 L-1600,2000 L-1600,501.5 Q-1625,497.59 -1600,476.19 Q-1575,497.73 -1550,476.33 Q-1525,498.37 -1500,476.97 Q-1475,499.52 -1450,478.12 Q-1425,501.15 -1400,479.75 Q-1375,503.19 -1350,481.79 Q-1325,505.55 -1300,484.15 Q-1275,508.09 -1250,486.69 Q-1225,510.66 -1200,489.26 Q-1175,513.13 -1150,491.73 Q-1125,515.32 -1100,493.92 Q-1075,517.09 -1050,495.69 Q-1025,518.34 -1000,496.94 Q-975,518.96 -950,497.56 Q-925,518.91 -900,497.51 Q-875,518.16 -850,496.76 Q-825,516.75 -800,495.35 Q-775,514.75 -750,493.35 Q-725,512.25 -700,490.85 Q-675,509.4 -650,488 Q-625,506.34 -600,484.94 Q-575,503.24 -550,481.84 Q-525,500.26 -500,478.86 Q-475,497.57 -450,476.17 Q-425,495.28 -400,473.88 Q-375,493.51 -350,472.11 Q-325,492.32 -300,470.92 Q-275,491.75 -250,470.35 Q-225,491.79 -200,470.39 Q-175,492.38 -150,470.98 Q-125,493.45 -100,472.05 Q-75,494.89 -50,473.49 Q-25,496.56 0,475.16 Q25,498.32 50,476.92 Q75,500.04 100,478.64 Q125,501.58 150,480.18 Q175,502.84 200,481.44 Q225,503.73 250,482.33 Q275,504.2 300,482.8 Q325,504.25 350,482.85 Q375,503.88 400,482.48 Q425,503.17 450,481.77 Q475,502.2 500,480.8 Q525,501.07 550,479.67 Q575,499.93 600,478.53 Q625,498.9 650,477.5 Q675,498.1 700,476.7 Q725,497.64 750,476.24 Q775,497.63 800,476.23 Q825,498.1 850,476.7 Q875,499.08 900,477.68 Q925,500.56 950,479.16 Q975,502.47 1000,481.07 Q1025,504.73 1050,483.33 Q1075,507.23 1100,485.83 Q1125,509.81 1150,488.41 Q1175,512.33 1200,490.93 Q1225,514.62 1250,493.22 Q1275,516.55 1300,495.15 Q1325,517.99 1350,496.59 Q1375,518.83 1400,497.43 Q1425,519 1450,497.6 Q1475,518.49 1500,497.09 Q1525,517.29 1550,495.89 Q1575,515.48 1600,494.08 Q1625,513.13 1650,491.73 Q1675,510.38 1700,488.98 Q1725,507.37 1750,485.97 Q1775,504.27 1800,482.87 Q1825,501.23 1850,479.83 Q1875,498.43 1900,477.03 Q1925,495.99 1950,474.59 Q1975,494.04 2000,472.64 Q2025,492.65 2050,471.25 Q2075,491.87 2100,470.47 Q2125,491.71 2150,470.31 Q2175,492.12 2200,470.72 Q2225,493.05 2250,471.65 Q2275,494.37 2300,472.97 Q2325,495.98 2350,474.58 Q2375,497.73 2400,476.33 Q2425,499.48 2450,478.08 Q2475,501.09 2500,479.69 Q2525,502.46 2550,481.06 Z" fill="#03fcf477" stroke="#ffffffbb" stroke-width="7" stroke-linejoin="round"/>
</svg>