<svg xmlns="http://www.w3.org/2000/svg" viewBox="-70 -250 140 180">
  <rect x="-70" y="-250" width="140" height="180" fill="#5d9acf"/>
  <g transform="translate(0,16) scale(0.85)">
    <path d="M0,-40 L0,-90" stroke="#000" stroke-width="50" stroke-linecap="round" fill="none"/>
    <path d="M0,-40 L0,-90" stroke="#dbac86" stroke-width="35" stroke-linecap="round" fill="none"/>
    <g transform="translate(4,-71.75)">
      <g transform="scale(0.3)">
        <ellipse cx="-44" cy="20" rx="16.5" ry="11" fill="#ed4ea3aa"/>
        <ellipse cx="44" cy="20" rx="16.5" ry="11" fill="#ed4ea3aa"/>
        <path d="M-16.8,20 Q0,40 16.8,20 Q0,40 -16.8,20" fill="#000" stroke="#000" stroke-width="11" stroke-linecap="round"/>
        <ellipse cx="-30" cy="0" rx="10" ry="10" fill="#000"/>
        <ellipse cx="30" cy="0" rx="10" ry="10" fill="#000"/>
      </g>
      <g transform="translate(-3.9,0) scale(1.35)">
        <g transform="translate(0,2.7) scale(1.5,1.5)">
          <g transform="translate(0,-4)">
            <path d="M7,-16 C 22,-34 34,-58 22,-82 C 14,-64 8,-42 3,-22 C 4,-18 7,-16 7,-16 Z" fill="#c41e3a" stroke="#000" stroke-width="5.2" stroke-linejoin="round"/>
            <path d="M-20,-6 L -8,-40 L 14,-18 Q 20,-8 10,-5 L -12,-3 Q -22,-2 -20,-6 Z" fill="#2d6b3a" stroke="#000" stroke-width="6" stroke-linejoin="round"/>
            <path d="M 6,-8 Q 20,-9 18,-3 Q 8,-1 5,-6 Z" fill="#2d6b3a" stroke="#000" stroke-width="5" stroke-linejoin="round"/>
          </g>
        </g>
      </g>
    </g>
  </g>
</svg>
